HIERARCHY
ROOT Hips
{
	OFFSET 0.000000 0.000000 0.000000
	CHANNELS 6 Xposition Yposition Zposition Zrotation Yrotation Xrotation 
	JOINT LHipJoint
	{
		OFFSET 0.000000 0.000000 0.000000
		CHANNELS 3 Zrotation Yrotation Xrotation
		JOINT LeftUpLeg
		{
			OFFSET 1.363060 -1.794630 0.839290
			CHANNELS 3 Zrotation Yrotation Xrotation
			JOINT LeftLeg
			{
				OFFSET 2.448110 -6.726130 0.000000
				CHANNELS 3 Zrotation Yrotation Xrotation
				JOINT LeftFoot
				{
					OFFSET 2.562200 -7.039590 0.000000
					CHANNELS 3 Zrotation Yrotation Xrotation
					JOINT LeftToeBase
					{
						OFFSET 0.157640 -0.433110 2.322550
						CHANNELS 3 Zrotation Yrotation Xrotation
						End Site
						{
							OFFSET 0.000000 0.000000 0.000000
						}
					}
				}
			}
		}
	}
	JOINT RHipJoint
	{
		OFFSET 0.000000 0.000000 0.000000
		CHANNELS 3 Zrotation Yrotation Xrotation
		JOINT RightUpLeg
		{
			OFFSET -1.305520 -1.794630 0.839290
			CHANNELS 3 Zrotation Yrotation Xrotation
			JOINT RightLeg
			{
				OFFSET -2.542530 -6.985550 0.000000
				CHANNELS 3 Zrotation Yrotation Xrotation
				JOINT RightFoot
				{
					OFFSET -2.568260 -7.056230 0.000000
					CHANNELS 3 Zrotation Yrotation Xrotation
					JOINT RightToeBase
					{
						OFFSET -0.164730 -0.452590 2.363150
						CHANNELS 3 Zrotation Yrotation Xrotation
						End Site
						{
							OFFSET 0.000000 0.000000 0.000000
						}
					}
				}
			}
		}
	}
}
MOTION
Frames: 30
Frame Time: 0.008333
1.218197 17.477220 0.711473 178.023844 -58.506242 -158.500501 -11.641430 4.674985 -0.538370 -18.048653 34.154643 -26.097340 -4.293073 -0.645862 2.354692 1.764898 13.985345 4.960030 3.201500 0.000001 -53.465400 9.182481 -1.928878 7.029986 -0.832938 5.670040 -23.061645 3.195557 2.335415 -5.746370 1.124653 2.236276 12.499525 -0.306000 0.000000 -69.044700
1.216347 17.471687 0.709918 178.246795 -57.748021 -159.089724 -11.684236 4.692330 -0.690002 -17.795999 34.885901 -25.448952 -4.284868 -0.653759 2.056950 1.770307 14.124329 4.904121 3.197700 0.000000 -53.300100 9.153475 -1.957662 7.121356 -0.926718 6.292595 -22.712687 3.163345 2.309857 -5.700163 1.114391 2.225021 12.383315 -0.306601 0.000000 -69.073700
1.215398 17.465412 0.708605 178.433914 -57.014668 -159.651755 -11.724825 4.702361 -0.846757 -17.531058 35.570689 -24.803863 -4.269918 -0.658437 1.823765 1.787234 14.336309 4.801044 3.200800 -0.000000 -53.077400 9.124645 -1.983442 7.195366 -1.008527 6.872665 -22.331308 3.134386 2.285568 -5.688595 1.105228 2.234740 12.273359 -0.298100 -0.000000 -69.119601
1.214971 17.458457 0.707819 178.585097 -56.323891 -160.176384 -11.763488 4.705696 -1.003679 -17.257460 36.187802 -24.172617 -4.248543 -0.659704 1.659370 1.814874 14.611955 4.651034 3.208399 0.000000 -52.806899 9.096094 -2.004962 7.250572 -1.081733 7.401858 -21.920936 3.108892 2.264098 -5.716806 1.096857 2.257476 12.172495 -0.283800 -0.000001 -69.181001
1.214918 17.450844 0.707615 178.696363 -55.687594 -160.654818 -11.800246 4.703406 -1.156051 -16.980667 36.724267 -23.565723 -4.221729 -0.657473 1.565122 1.851655 14.936955 4.455607 3.216500 0.000000 -52.502300 9.067893 -2.021687 7.287751 -1.150681 7.876699 -21.486559 3.086709 2.246740 -5.788227 1.089147 2.285963 12.082633 -0.266900 0.000001 -69.255000
1.214761 17.442577 0.708021 178.768678 -55.114406 -161.079952 -11.835596 4.697197 -1.297872 -16.708937 37.173298 -22.997148 -4.191177 -0.652024 1.541683 1.895270 15.292391 4.217330 3.220500 0.000000 -52.179400 9.039267 -2.034914 7.310954 -1.219365 8.297227 -21.036739 3.067936 2.234945 -5.905680 1.081694 2.313051 12.005139 -0.250500 -0.000000 -69.335700
1.214110 17.433639 0.709041 -179.901936 -54.333618 -160.330568 -11.531390 4.221063 -3.018707 -16.539587 37.285292 -23.120931 -4.239340 -0.399708 1.562059 2.067243 15.856745 3.789315 3.216000 0.000000 -51.855300 7.323637 -2.360603 12.278718 -16.929775 40.804968 -24.621780 -0.545477 1.954927 -5.409337 -5.071627 -31.203558 9.379362 -0.236800 -0.000000 -69.416400
1.212685 17.424026 0.710446 178.803161 -54.185443 -161.761174 -11.903817 4.677241 -1.529182 -16.209917 37.810912 -22.015337 -4.125405 -0.635545 1.695276 1.991742 16.015994 3.632948 3.200100 0.000000 -51.547001 8.976697 -2.055515 7.334827 -1.358397 9.005261 -20.382437 3.016522 2.187377 -5.742074 1.057952 2.359094 11.581800 -0.226400 -0.000000 -69.491700
1.210343 17.413790 0.712075 178.766374 -53.836226 -162.013949 -11.936821 4.664740 -1.611794 -15.993082 38.008799 -21.614596 -4.093003 -0.626567 1.862150 2.039346 16.350374 3.300577 3.170600 0.000001 -51.268200 8.941963 -2.067110 7.345042 -1.430846 9.300566 -20.229653 2.979974 2.145909 -5.381879 1.039483 2.375608 11.191415 -0.219900 -0.000000 -69.554600
1.206945 17.403033 0.713679 178.699576 -53.560962 -162.207730 -11.968323 4.651163 -1.670462 -15.804664 38.133437 -21.283057 -4.062467 -0.617559 2.081404 2.084344 16.651558 2.950281 3.127300 -0.000000 -51.028600 8.905431 -2.082415 7.359398 -1.508911 9.555451 -20.127041 2.943061 2.105796 -4.994938 1.018924 2.381764 10.773490 -0.217700 -0.000001 -69.599201
1.202418 17.391874 0.715173 178.614036 -53.354035 -162.347777 -11.997165 4.636464 -1.707093 -15.645263 38.190512 -21.020536 -4.034153 -0.608435 2.345239 2.126251 16.916263 2.588823 3.071400 0.000000 -50.832800 8.868457 -2.099908 7.377951 -1.591392 9.773906 -20.076332 2.906043 2.067203 -4.584820 0.996356 2.377544 10.332672 -0.219200 0.000001 -69.622600
1.196994 17.380526 0.716196 178.512751 -53.208108 -162.432477 -12.021255 4.620480 -1.723219 -15.517595 38.180765 -20.828890 -4.008049 -0.599110 2.645933 2.165596 17.147955 2.222268 3.005800 -0.000000 -50.679100 8.833021 -2.117558 7.400450 -1.677472 9.959836 -20.081675 2.868737 2.030017 -4.153281 0.971767 2.362209 9.874214 -0.224501 -0.000000 -69.623700
1.190835 17.369186 0.716814 178.407893 -53.118061 -162.473029 -12.038975 4.602062 -1.723480 -15.416067 38.110843 -20.701799 -3.983642 -0.589148 2.977621 2.202873 17.350619 1.855343 2.933199 -0.000000 -50.563300 8.800938 -2.133305 7.424950 -1.763784 10.119088 -20.138573 2.830984 1.993739 -3.702979 0.944736 2.333185 9.402807 -0.234001 0.000000 -69.602700
1.184029 17.358023 0.716831 178.306434 -53.080363 -162.471556 -12.048538 4.580423 -1.709087 -15.341181 37.978953 -20.637465 -3.960007 -0.579044 3.333545 2.239583 17.534977 1.491685 2.857300 0.000000 -50.474600 8.773710 -2.146602 7.451797 -1.849179 10.257059 -20.248899 2.792259 1.957792 -3.234104 0.914652 2.286764 8.922469 -0.248100 -0.000000 -69.562001
1.176958 17.347204 0.716122 178.210212 -53.093270 -162.431118 -12.048046 4.554242 -1.682171 -15.291159 37.786052 -20.632481 -3.936203 -0.569188 3.709635 2.277043 17.710880 1.133217 2.780900 -0.000000 -50.401800 8.752739 -2.157445 7.481614 -1.933085 10.381740 -20.412230 2.751339 1.921057 -2.744309 0.880325 2.216633 8.434773 -0.268200 0.000001 -69.503400
1.169866 17.336935 0.715005 178.125092 -53.154721 -162.363999 -12.037633 4.522325 -1.645792 -15.257033 37.533501 -20.672171 -3.910398 -0.559999 4.097913 2.316910 17.890600 0.781672 2.707100 0.000000 -50.330900 8.738549 -2.165196 7.511332 -2.011015 10.493482 -20.618994 2.708241 1.882550 -2.234113 0.841752 2.123376 7.945903 -0.293400 -0.000000 -69.435800
1.162810 17.327309 0.713721 178.058844 -53.262926 -162.280440 -12.017848 4.483742 -1.602549 -15.232829 37.226542 -20.748351 -3.881653 -0.551775 4.494284 2.360181 18.081515 0.437240 2.636901 -0.000000 -50.251100 8.730692 -2.170285 7.540561 -2.081049 10.599289 -20.863409 2.662481 1.841414 -1.701298 0.797939 2.001242 7.458103 -0.324600 0.000001 -69.362000
1.156046 17.318528 0.712742 178.014004 -53.413672 -162.194844 -11.991017 4.437847 -1.556651 -15.205305 36.874012 -20.844065 -3.848948 -0.544281 4.892398 2.407408 18.288314 0.099808 2.570701 0.000000 -50.153000 8.727901 -2.171947 7.565161 -2.136833 10.700203 -21.128685 2.614624 1.797267 -1.149269 0.748996 1.849772 6.978839 -0.361500 -0.000000 -69.289900
1.149761 17.310515 0.711704 177.984143 -53.604034 -162.098516 -11.955881 4.385091 -1.507017 -15.184915 36.477374 -20.966168 -3.812616 -0.538470 5.288959 2.459308 18.516421 -0.228832 2.510099 0.000000 -50.029799 8.730271 -2.171878 7.590946 -2.187365 10.811476 -21.428576 2.562219 1.748913 -0.565020 0.692686 1.658307 6.499742 -0.406300 -0.000000 -69.210200
1.143671 17.303491 0.712069 177.988599 -53.827599 -162.030130 -11.920135 4.325667 -1.461473 -15.139627 36.057681 -21.077375 -3.771612 -0.532914 5.673503 2.514754 18.760103 -0.549582 2.452400 0.000000 -49.879101 8.733805 -2.167523 7.605377 -2.214121 10.919109 -21.717511 2.509573 1.697880 0.029563 0.631826 1.438015 6.042547 -0.455600 0.000000 -69.141500
1.137957 17.297318 0.713147 178.012936 -54.080104 -161.971980 -11.882081 4.261158 -1.417857 -15.085099 35.617506 -21.188224 -3.727402 -0.528636 6.041708 2.573396 19.018357 -0.860103 2.398500 -0.000000 -49.699700 8.739084 -2.160466 7.615325 -2.229344 11.036394 -22.013209 2.454014 1.643418 0.647312 0.564465 1.180906 5.595586 -0.511200 0.000001 -69.070800
1.132628 17.291948 0.715248 178.056764 -54.357378 -161.931113 -11.843877 4.192885 -1.378213 -15.017692 35.168340 -21.289105 -3.680767 -0.525474 6.386506 2.633877 19.284135 -1.159182 2.347200 -0.000000 -49.493500 8.745022 -2.150172 7.618758 -2.232097 11.161248 -22.304979 2.396221 1.586140 1.283451 0.491159 0.890136 5.161198 -0.571700 -0.000000 -68.996800
1.127538 17.287390 0.719107 178.125875 -54.655214 -161.928346 -11.810361 4.122499 -1.346424 -14.920123 34.726905 -21.354821 -3.632107 -0.522599 6.698515 2.693747 19.544798 -1.446284 2.296200 0.000000 -49.265000 8.749717 -2.135197 7.607347 -2.211503 11.276687 -22.559558 2.339653 1.528041 1.915901 0.415062 0.580021 4.753292 -0.633900 0.000000 -68.929799
1.122809 17.283369 0.723855 178.204382 -54.973250 -161.939819 -11.778148 4.051692 -1.319669 -14.812867 34.293529 -21.401295 -3.583622 -0.521080 6.975867 2.751674 19.793295 -1.719115 2.245600 0.000000 -49.019600 8.755238 -2.116845 7.588467 -2.182320 11.391441 -22.800314 2.281469 1.468512 2.558535 0.334370 0.245952 4.354144 -0.698300 -0.000000 -68.853300
1.118462 17.279808 0.729974 178.291711 -55.311296 -161.977652 -11.749940 3.982026 -1.299658 -14.685796 33.877479 -21.410587 -3.535735 -0.520436 7.211942 2.805371 20.017814 -1.977583 2.193800 -0.000000 -48.762401 8.761272 -2.094025 7.554977 -2.136529 11.483852 -23.001757 2.224775 1.409348 3.191365 0.252567 -0.094941 3.973544 -0.761000 -0.000000 -68.774699
1.114784 17.276520 0.737351 178.383082 -55.659655 -162.033733 -11.728841 3.921881 -1.288533 -14.544254 33.481841 -21.386683 -3.491896 -0.518903 7.403687 2.853959 20.211494 -2.222376 2.139300 0.000000 -48.499200 8.766653 -2.061521 7.501575 -2.077491 11.550346 -23.164791 2.171284 1.354133 3.817119 0.172662 -0.431858 3.605783 -0.820200 -0.000000 -68.689600
1.111348 17.273243 0.745203 178.464516 -56.051312 -162.094678 -11.702642 3.856483 -1.278233 -14.400448 33.097780 -21.333754 -3.448423 -0.521181 7.558248 2.894579 20.362002 -2.453401 2.082400 -0.000000 -48.235100 8.779810 -2.030546 7.440444 -2.010543 11.570835 -23.301541 2.117256 1.296144 4.428966 0.090972 -0.764896 3.239931 -0.873801 0.000000 -68.596700
1.108478 17.269833 0.753639 178.529234 -56.475932 -162.155427 -11.677685 3.795522 -1.268729 -14.254091 32.724015 -21.253412 -3.408060 -0.525096 7.676044 2.927145 20.466387 -2.673376 2.021600 0.000000 -47.974700 8.797134 -1.996224 7.364304 -1.934156 11.534837 -23.406572 2.066225 1.239938 5.026408 0.012027 -1.078664 2.876009 -0.919600 0.000000 -68.497800
1.106230 17.266060 0.762353 178.570474 -56.941815 -162.205022 -11.651778 3.738830 -1.257907 -14.112431 32.353199 -21.154634 -3.371191 -0.530865 7.764611 2.951097 20.520302 -2.884681 1.956400 -0.000000 -47.721500 8.820401 -1.959202 7.274062 -1.852581 11.434627 -23.489688 2.017705 1.184895 5.616774 -0.064025 -1.369098 2.504195 -0.956200 -0.000000 -68.393500
1.104785 17.261803 0.771062 178.577838 -57.457103 -162.232891 -11.623539 3.686087 -1.243384 -13.979252 31.975544 -21.043663 -3.337617 -0.538454 7.832195 2.966551 20.523247 -3.090387 1.886200 0.000000 -47.477300 8.850845 -1.919719 7.168712 -1.766654 11.257553 -23.556390 1.971983 1.130631 6.203829 -0.136238 -1.629407 2.119394 -0.982000 -0.000000 -68.288300
